; NON-PLATED HOLES START AT T1
; THROUGH (PLATED) HOLES START AT T100
M48
INCH
T100C0.038417
T101C0.040000
T102C0.130000
T103C0.035000
T104C0.038445
T105C0.031497
T106C0.030000
T107C0.042000
T108C0.015748
T109C0.038000
%
T100
X018178Y000947
X011178Y000947
X020178Y000947
X021178Y000947
X012178Y000947
X013178Y000947
X022178Y000947
X023178Y000947
X014178Y000947
X015178Y000947
X016178Y000947
X024178Y000947
X025178Y000947
X017178Y000947
T101
X001047Y008135
X002165Y009769
X001047Y011403
X001047Y009225
X002165Y007588
X002165Y011950
X002165Y008678
X002165Y010859
X001047Y010312
T102
X001606Y014690
X001606Y004847
T103
X025165Y015450
X006665Y010450
X021665Y008450
X023587Y005950
X014665Y003950
X011665Y003950
X022165Y016450
X009665Y011450
X006665Y006950
X003665Y003450
X025165Y016450
X006665Y011450
X021665Y005950
X009665Y008450
X006665Y008450
X014665Y011450
X019665Y011450
X017665Y011450
X015665Y011450
X013665Y011450
X003665Y006450
X018665Y011450
X016665Y011450
X014665Y008450
X014665Y004950
X006665Y002950
X019665Y008450
X017665Y008450
X015665Y008450
X013665Y008450
X011665Y004950
X018665Y008450
X016665Y008450
X020665Y011450
X009665Y009450
X021665Y011450
X006665Y009450
X022165Y015450
X009665Y010450
X020665Y008450
T104
X007578Y019947
X008578Y019947
X016578Y019947
X024178Y019947
X010578Y019947
X025178Y019947
X009578Y019947
X018178Y019947
X011578Y019947
X012578Y019947
X013578Y019947
X020178Y019947
X021178Y019947
X019178Y019947
X014578Y019947
X015578Y019947
X022178Y019947
X023178Y019947
T105
X009665Y005966
X011665Y006950
X009665Y006950
X021150Y017450
X021150Y015450
X020165Y017450
X020165Y015450
X011665Y005966
T106
X009665Y016950
X009665Y014950
X018165Y003450
X025665Y004450
X016165Y003450
X023665Y004450
X022665Y004450
X020665Y004450
T107
X002685Y001950
X005665Y001950
T108
X015165Y017450
X024165Y016950
X023165Y016950
T109
X018665Y006450
X021665Y013450
X026165Y010950
X015665Y006450
X008165Y015950
X025165Y011950
X005165Y015950
X025165Y009950
X017665Y006450
X020665Y013450
X025165Y010950
X016665Y006450
X026165Y011950
X007165Y015950
X006165Y015950
X026165Y009950
T00
M30
